<svg xmlns="http://www.w3.org/2000/svg" width="100" height="100" viewBox="0 0 100 100" fill="none"><rect width="100" height="100" rx="4" fill="black"></rect><ellipse cx="72.8984" cy="32.2673" rx="1.92081" ry="5.12251" fill="#FEE97D"></ellipse><ellipse cx="1.92081" cy="5.12251" rx="1.92081" ry="5.12251" transform="matrix(-1 0 0 1 31.5224 27.1448)" fill="#FEE97D"></ellipse><path d="M78.0412 45.5152C81.0024 44.1279 87.4851 40.4248 89.7261 36.7109C89.2459 39.1922 86.2686 44.7469 80.7623 51.2781L71.2383 62.4035C68.7023 65.7683 63.751 72.683 63.0707 74.9261C63.0418 75.0559 63.0165 75.1773 62.9948 75.2898C63.0024 75.1881 63.0282 75.0662 63.0707 74.9261C63.6112 72.5004 65.4309 67.1442 69.0774 62.4035L72.999 56.0004L75.1599 51.9184L78.0412 45.5152Z" fill="#9E13E0"></path><path d="M22.0174 45.5152C19.0561 44.1279 12.5734 40.4248 10.3324 36.7109C10.8126 39.1922 13.7899 44.7469 19.2962 51.2781L28.8202 62.4035C31.3562 65.7683 36.3075 72.683 36.9878 74.9261C37.0167 75.0559 37.042 75.1773 37.0637 75.2898C37.0561 75.1881 37.0303 75.0662 36.9878 74.9261C36.4473 72.5004 34.6276 67.1442 30.9811 62.4035L27.0595 56.0004L24.8986 51.9184L22.0174 45.5152Z" fill="#9E13E0"></path><path d="M70.2839 48.1548L63.8812 49.5955C64.1373 54.782 62.1738 60.4008 61.16 62.5618C66.3462 58.784 69.4035 51.383 70.2839 48.1548Z" fill="#9E13E0"></path><path d="M29.8591 48.1548L36.2618 49.5955C36.0057 54.782 37.9692 60.4008 38.9829 62.5618C33.7967 58.784 30.7394 51.383 29.8591 48.1548Z" fill="#9E13E0"></path><path d="M42.8987 75.774C42.2584 71.9321 39.4306 70.2246 38.0967 69.8511C39.3132 71.1957 40.3643 77.5615 40.7378 80.5763C41.6982 85.8269 47.2739 87.353 49.9417 87.4597C56.9206 86.8194 59.0388 82.604 59.2256 80.5763C59.4817 76.3503 61.093 71.7187 61.8667 69.9311C58.6013 70.9556 57.2514 74.2532 56.9846 75.774C57.1127 83.4577 52.3427 85.9656 49.9417 86.2591C43.619 84.1781 43.699 80.5763 42.8987 75.774Z" fill="#9E13E0"></path><path d="M52.5027 51.27H47.4606L47.3806 68.4784C47.3806 71.5519 46.2068 76.9092 45.6198 79.2037C47.7968 77.731 49.4615 71.9201 50.0217 69.1988C50.9821 74.8976 53.3564 78.2432 54.4235 79.2037C53.4631 76.8345 52.7428 71.0664 52.5027 68.4784V51.27Z" fill="#9E13E0"></path><path d="M17.2946 18.3906C19.4023 16.7631 24.6254 13.6845 28.6588 14.3887C32.6921 15.0929 35.7812 16.3898 36.8219 16.9502C39.4097 18.5243 46.7948 21.2727 55.6305 19.6719C57.338 19.2716 61.5372 18.0384 64.6745 16.3096C67.8117 14.581 72.3304 14.3087 74.1979 14.3887C75.1849 14.3887 78.2476 15.1732 82.6012 18.3105L88.3639 23.7539C89.1376 24.7411 90.5096 27.2114 89.8053 29.1963C88.9249 31.6775 88.044 32.718 83.6422 37.1201C82.3616 38.214 78.8401 40.7856 74.9987 42.3223L68.5963 45.2041C66.5421 46.0045 61.745 47.5413 58.9918 47.2852C58.1648 47.1517 56.0307 46.6128 54.11 45.5244C52.1892 44.4359 50.5348 44.1631 49.9479 44.1631C49.0673 44.2699 46.5224 44.9158 43.3854 46.6445C40.2482 48.3733 33.2751 46.0309 30.1803 44.6436L25.0573 42.3223C22.8428 41.4683 17.662 38.913 14.653 35.5195C11.6437 32.1259 10.8388 30.8502 10.8121 30.6367C10.2786 29.8096 9.46741 27.6909 10.4918 25.834L11.692 23.7539L17.2946 18.3906ZM34.7311 26.6748C30.9536 22.0647 26.3278 22.0325 24.487 22.5928L20.5651 23.6328C22.6458 23.7929 27.1911 24.4335 28.7282 25.7139C26.0868 25.5805 19.9885 25.7619 16.7233 27.5547C18.6174 28.8353 22.6938 31.6853 23.8463 32.8379C24.38 33.5849 26.8398 35.079 32.4098 35.0791C37.9796 35.0791 41.72 33.585 42.8942 32.8379C41.7468 32.7043 38.5083 31.2846 34.7311 26.6748ZM78.1286 22.5928C76.2876 22.0326 71.6618 22.0648 67.8844 26.6748C64.107 31.2847 60.8686 32.7044 59.7213 32.8379C60.8954 33.585 64.6357 35.0791 70.2057 35.0791C75.7756 35.0791 78.2354 33.585 78.7692 32.8379C79.9217 31.6853 83.9981 28.8353 85.8922 27.5547C82.6269 25.7619 76.5285 25.5805 73.8873 25.7139C75.4242 24.4334 79.9696 23.7929 82.0504 23.6328L78.1286 22.5928Z" fill="#9E13E0"></path></svg>